<svg xmlns="http://www.w3.org/2000/svg" viewBox="0 0 200 120" width="800" height="480">
<path fill="#009fe0" fill-rule="evenodd" d="M145.95 95.10C142.19 94.99 139.59 94.76 137.10 94.30C136.52 94.20 135.60 94.06 135.05 94.00C133.73 93.86 133.04 93.74 131.91 93.44C131.40 93.31 130.48 93.11 129.86 93.00C127.99 92.67 127.49 92.45 127.24 91.85C127.00 91.26 127.12 89.39 127.64 85.98C127.78 85.08 127.96 83.84 128.05 83.21C128.25 81.77 129.01 79.41 129.66 78.22C130.84 76.04 133.53 73.14 135.40 72.03C137.02 71.07 138.77 70.60 140.75 70.60C142.43 70.60 144.08 70.97 145.33 71.63C147.45 72.75 148.71 74.25 149.06 76.08C149.21 76.85 149.22 77.08 149.40 81.10C149.55 84.37 149.88 87.87 150.16 89.10C150.37 90.04 151.04 91.72 151.60 92.70C152.41 94.15 152.45 94.61 151.78 94.96C151.37 95.18 149.84 95.21 145.95 95.10ZM166.75 92.86C166.60 92.64 166.60 92.58 166.75 92.23C166.84 92.02 167.08 91.64 167.30 91.39C168.20 90.32 169.23 88.46 169.80 86.85C170.03 86.21 170.48 83.58 170.56 82.38C170.70 80.42 170.15 77.69 169.33 76.21C168.74 75.15 167.31 73.66 166.16 72.91C165.27 72.33 162.86 71.09 162.25 70.90C162.03 70.83 161.60 70.65 161.29 70.49C160.99 70.34 160.47 70.14 160.14 70.05C159.82 69.95 159.26 69.74 158.90 69.58C158.54 69.41 157.89 69.15 157.45 69.00C155.62 68.36 152.94 67.00 151.03 65.73C147.42 63.33 144.92 60.56 142.74 56.55C141.78 54.79 141.18 53.13 140.29 49.88C140.01 48.85 139.59 44.88 139.53 42.75C139.49 41.25 139.52 40.39 139.69 38.65C140.05 34.91 140.18 34.00 140.55 32.55C140.95 30.96 140.99 30.41 140.72 30.17C140.56 30.02 140.52 30.02 140.32 30.16C140.07 30.33 139.22 31.43 138.28 32.80C137.68 33.67 136.57 35.28 130.49 44.05C129.30 45.76 128.16 47.40 127.95 47.70C127.74 48.00 127.37 48.52 127.15 48.85C126.92 49.18 126.00 50.51 125.10 51.80C124.20 53.09 123.23 54.49 122.95 54.90C121.56 56.91 117.60 62.62 117.06 63.39C116.64 63.99 114.91 66.47 113.60 68.36C113.13 69.04 111.60 71.24 110.20 73.26C108.80 75.28 106.96 77.93 106.12 79.14C103.99 82.22 103.72 82.48 102.91 82.20C102.55 82.08 102.36 81.98 100.84 81.05C100.39 80.78 99.80 80.42 99.54 80.26C99.04 79.95 95.15 77.41 93.35 76.20C89.78 73.82 88.00 72.57 87.86 72.34C87.37 71.60 87.61 70.97 89.27 68.64C89.87 67.81 90.56 66.85 90.81 66.49C91.06 66.14 91.93 64.91 92.75 63.75C94.57 61.17 95.51 59.85 97.06 57.65C98.23 56.01 99.66 53.98 102.55 49.90C103.30 48.83 104.38 47.31 104.94 46.52C105.49 45.73 106.45 44.38 107.06 43.52C108.08 42.07 108.99 40.78 112.10 36.40C112.74 35.49 114.05 33.65 115.00 32.31C116.52 30.17 116.74 29.82 116.74 29.47C116.75 29.16 116.70 29.04 116.49 28.88C116.24 28.69 115.97 28.69 105.19 28.69C99.12 28.69 93.72 28.66 93.19 28.61C91.22 28.43 89.27 27.60 87.93 26.38C86.82 25.36 85.72 23.64 85.21 22.14C84.69 20.56 84.57 17.92 84.90 15.39C85.11 13.88 85.20 13.54 85.93 11.65C87.45 7.73 91.03 4.16 94.82 2.79C96.58 2.16 96.83 2.11 98.70 1.99C101.25 1.84 141.07 1.92 141.75 2.08C142.50 2.26 144.45 3.24 145.14 3.79C146.52 4.89 147.47 6.16 148.27 8.00C148.92 9.46 149.00 9.88 149.09 11.95C149.21 14.69 149.26 14.70 151.45 12.47C155.38 8.46 159.34 5.64 163.86 3.64C164.53 3.35 165.12 3.10 165.15 3.10C165.18 3.10 165.76 2.89 166.43 2.64C167.22 2.34 168.46 2.01 169.95 1.68L172.25 1.17L174.85 1.12C177.81 1.07 178.50 1.13 180.77 1.65C182.52 2.05 183.03 2.21 184.35 2.74C188.65 4.48 192.34 7.55 195.04 11.65C195.85 12.88 196.81 14.64 197.00 15.25C197.07 15.47 197.28 16.00 197.47 16.42C198.42 18.59 198.93 24.01 198.61 28.51C198.47 30.52 198.04 33.71 197.80 34.60C196.87 38.02 194.05 41.78 191.57 42.90C191.23 43.05 190.45 43.35 189.85 43.56L188.75 43.94L186.67 43.98C184.10 44.03 183.36 43.93 181.62 43.30C180.25 42.80 179.40 42.28 178.58 41.43C178.16 41.00 177.68 40.03 177.45 39.15C177.28 38.49 177.25 36.71 177.38 34.65C177.48 33.16 177.38 31.92 177.05 30.64C176.84 29.82 176.70 29.51 176.25 28.84C175.58 27.85 175.07 27.37 174.12 26.81C172.97 26.14 172.71 26.07 171.30 26.07C170.26 26.06 169.94 26.10 169.41 26.29C166.58 27.28 164.24 29.42 162.75 32.39C161.92 34.05 161.66 35.66 161.90 37.65C162.05 38.87 162.17 39.24 162.77 40.31C163.84 42.19 166.16 44.00 168.92 45.09C169.32 45.25 169.92 45.49 170.25 45.63C170.58 45.77 171.25 46.02 171.75 46.19C173.78 46.87 175.47 47.47 175.75 47.62C175.92 47.70 176.23 47.83 176.45 47.90C177.17 48.12 179.42 49.22 180.48 49.87C182.04 50.82 182.93 51.52 184.25 52.85C186.23 54.82 187.54 56.67 188.98 59.49C190.03 61.56 190.58 63.01 191.35 65.80C191.86 67.64 191.85 67.55 192.21 70.25C192.52 72.48 192.54 72.86 192.54 75.50C192.55 78.04 192.52 78.59 192.27 80.55C191.77 84.57 191.48 85.77 190.88 86.46C190.64 86.73 190.40 86.86 189.74 87.06C189.27 87.20 188.66 87.42 188.37 87.54C188.08 87.67 187.47 87.87 187.01 87.99C186.55 88.12 185.85 88.35 185.45 88.51C185.05 88.67 184.35 88.88 183.88 88.99C183.41 89.10 182.72 89.31 182.34 89.45C181.96 89.59 181.13 89.84 180.50 90.00C179.87 90.16 179.06 90.40 178.70 90.53C178.34 90.67 177.57 90.88 176.97 91.00C176.38 91.12 175.57 91.32 175.18 91.46C174.79 91.59 173.92 91.81 173.26 91.95C172.59 92.09 171.56 92.34 170.95 92.50C169.55 92.87 168.24 93.10 167.49 93.10C166.98 93.10 166.88 93.07 166.75 92.86ZM8.35 70.20C8.03 69.85 8.06 69.18 8.44 67.38C8.64 66.46 8.89 65.08 9.00 64.30C9.11 63.52 9.35 62.16 9.54 61.27C9.73 60.38 9.92 59.38 9.95 59.05C10.05 58.10 10.29 56.74 10.56 55.58C10.69 54.99 10.89 53.84 11.00 53.03C11.11 52.21 11.35 50.83 11.54 49.95C11.73 49.07 11.94 47.90 12.00 47.35C12.06 46.80 12.27 45.62 12.46 44.73C12.65 43.84 12.89 42.47 13.00 41.68C13.11 40.89 13.36 39.53 13.54 38.65C13.73 37.77 13.94 36.60 14.00 36.05C14.06 35.50 14.27 34.32 14.46 33.43C14.65 32.54 14.90 31.14 15.01 30.33C15.12 29.52 15.34 28.26 15.50 27.55C15.66 26.84 15.88 25.60 15.99 24.80C16.10 24.00 16.33 22.72 16.49 21.95C16.66 21.18 16.91 19.76 17.05 18.80C17.19 17.84 17.41 16.60 17.54 16.05C17.67 15.50 17.88 14.52 17.99 13.87C18.11 13.19 18.37 12.25 18.60 11.65C18.82 11.07 19.00 10.53 19.00 10.45C19.00 10.19 20.30 7.78 20.83 7.05C22.41 4.89 24.20 3.57 26.73 2.71C28.51 2.10 29.24 2.00 31.68 2.00C33.98 2.00 34.67 2.10 36.10 2.67C38.11 3.47 39.31 4.54 40.19 6.28C40.83 7.55 40.95 8.02 41.11 9.75C41.30 11.90 41.08 14.62 40.48 17.29C40.32 18.03 40.10 19.27 40.00 20.04C39.90 20.82 39.67 22.09 39.50 22.87C39.33 23.65 39.10 24.95 39.00 25.76C38.89 26.57 38.67 27.82 38.51 28.54C38.35 29.26 38.12 30.55 38.00 31.40C37.88 32.25 37.65 33.56 37.49 34.30C37.32 35.04 37.10 36.28 37.00 37.06C36.90 37.83 36.68 39.08 36.51 39.83C36.13 41.50 35.74 44.36 35.84 44.73C35.93 45.11 36.22 45.37 36.69 45.50C36.97 45.57 39.43 45.60 44.58 45.58C51.53 45.55 52.08 45.54 52.33 45.37C52.76 45.09 52.90 44.78 53.11 43.63C53.21 43.04 53.43 41.94 53.59 41.20C53.75 40.46 53.93 39.40 54.00 38.85C54.06 38.30 54.29 37.02 54.50 36.00C54.71 34.98 54.91 33.88 54.95 33.55C55.06 32.60 55.29 31.24 55.55 30.10C55.68 29.52 55.88 28.35 56.00 27.50C56.12 26.65 56.35 25.35 56.51 24.61C56.68 23.87 56.90 22.63 57.00 21.85C57.10 21.07 57.32 19.83 57.48 19.09C57.65 18.35 57.83 17.39 57.90 16.95C58.17 15.07 58.24 14.71 58.46 13.94C58.59 13.50 58.80 12.69 58.94 12.14C59.21 11.05 60.12 8.95 60.81 7.84C61.81 6.21 63.31 4.72 64.96 3.71C65.92 3.11 68.30 2.27 69.45 2.11C70.53 1.96 73.89 1.98 74.80 2.14C75.66 2.29 77.45 2.97 78.11 3.38C78.83 3.84 79.74 4.74 80.28 5.56C80.80 6.32 81.15 7.24 81.57 8.95C81.80 9.90 81.80 12.69 81.56 13.90C81.47 14.37 81.31 15.29 81.20 15.95C80.70 19.06 80.60 19.63 80.36 20.75C80.22 21.41 80.04 22.50 79.95 23.17C79.87 23.84 79.67 24.96 79.51 25.67C79.34 26.37 79.12 27.65 79.00 28.50C78.88 29.35 78.64 30.75 78.45 31.60C78.27 32.45 78.07 33.60 78.00 34.15C77.94 34.70 77.73 35.88 77.54 36.77C77.35 37.66 77.10 39.06 76.99 39.87C76.88 40.68 76.66 41.94 76.50 42.65C76.34 43.36 76.12 44.62 76.00 45.45C75.89 46.27 75.66 47.56 75.50 48.30C75.33 49.04 75.13 50.17 75.05 50.80C74.85 52.28 74.83 52.40 74.50 53.95C74.34 54.66 74.12 55.92 74.01 56.75C73.89 57.58 73.67 58.88 73.51 59.65C73.34 60.42 73.14 61.41 73.06 61.84C72.85 62.92 72.65 63.14 71.90 63.07C71.53 63.04 71.00 62.87 70.35 62.57C69.80 62.32 69.15 62.06 68.90 62.00C68.65 61.93 68.08 61.73 67.64 61.55C67.19 61.36 66.45 61.11 65.99 61.00C65.53 60.88 64.77 60.65 64.30 60.49C63.83 60.33 63.05 60.12 62.55 60.04C62.05 59.95 60.95 59.73 60.10 59.55C58.33 59.17 57.40 59.05 54.80 58.90C52.24 58.74 49.65 58.76 47.00 58.95C44.49 59.12 44.05 59.18 42.05 59.60C41.28 59.76 40.20 59.96 39.66 60.05C39.12 60.13 38.21 60.34 37.64 60.50C37.08 60.67 36.17 60.89 35.63 61.00C35.09 61.11 34.18 61.36 33.60 61.55C33.02 61.74 32.21 61.97 31.80 62.06C31.39 62.15 30.73 62.35 30.33 62.51C29.94 62.66 29.25 62.88 28.81 63.00C28.37 63.11 27.68 63.33 27.28 63.49C26.88 63.66 26.20 63.88 25.78 64.00C25.35 64.12 24.72 64.34 24.38 64.49C24.03 64.65 23.40 64.87 22.97 64.99C22.54 65.11 21.98 65.31 21.72 65.44C21.46 65.57 20.87 65.80 20.41 65.94C19.94 66.09 19.22 66.36 18.81 66.54C18.39 66.72 17.78 66.95 17.46 67.04C17.13 67.14 16.61 67.34 16.31 67.49C16.00 67.65 15.43 67.87 15.05 68.00C14.67 68.13 14.15 68.33 13.90 68.45C13.65 68.58 13.06 68.82 12.58 68.98C12.10 69.15 11.54 69.38 11.33 69.48C10.79 69.76 8.96 70.40 8.73 70.40C8.62 70.40 8.45 70.31 8.35 70.20Z"/>
<path fill="#074da2" fill-rule="evenodd" d="M148.70 119.90C148.70 119.68 147.88 119.29 146.85 119.04C146.25 118.89 145.50 118.66 145.20 118.52C144.90 118.39 144.41 118.20 144.12 118.10C142.99 117.69 140.60 116.29 138.96 115.06C137.35 113.85 135.24 111.69 133.88 109.86C132.75 108.33 132.62 108.20 132.33 108.20C131.81 108.20 131.49 108.58 131.05 109.69C130.75 110.45 129.95 111.79 129.10 112.95C127.28 115.42 125.05 117.22 122.52 118.29C121.86 118.57 121.03 118.84 120.68 118.90C119.80 119.04 73.20 119.04 72.30 118.89C71.39 118.75 69.55 117.93 68.59 117.24C67.07 116.15 65.66 114.40 64.92 112.69C64.71 112.21 64.50 111.88 64.35 111.80C63.99 111.60 63.60 111.79 63.25 112.33C63.09 112.59 62.75 113.12 62.50 113.51C61.02 115.84 58.92 117.44 56.14 118.34C54.30 118.93 53.37 119.04 50.61 118.97C48.19 118.91 47.92 118.86 46.31 118.16C44.66 117.44 43.56 116.45 42.80 114.99C42.23 113.90 42.11 113.50 41.95 112.30C41.76 110.95 41.76 109.56 41.95 107.50C42.09 105.86 42.16 105.44 42.64 103.17C42.78 102.53 42.94 101.56 43.00 101.02C43.06 100.49 43.27 99.31 43.46 98.40C43.65 97.49 43.90 96.10 44.01 95.30C44.12 94.50 44.34 93.27 44.50 92.55C44.66 91.84 44.88 90.58 44.99 89.77C45.10 88.96 45.35 87.56 45.54 86.67C45.73 85.78 45.94 84.60 46.00 84.05C46.06 83.50 46.26 82.35 46.45 81.50C46.63 80.65 46.88 79.28 46.99 78.47C47.10 77.66 47.35 76.26 47.54 75.37C47.73 74.48 47.91 73.50 47.95 73.20C47.98 72.90 48.08 72.22 48.16 71.69C48.29 70.85 48.30 70.68 48.17 70.38C47.87 69.67 48.21 69.70 39.70 69.70C31.28 69.70 31.57 69.68 31.24 70.33C31.15 70.49 31.01 71.04 30.94 71.54C30.86 72.04 30.64 73.17 30.45 74.05C30.27 74.93 30.06 76.10 30.00 76.65C29.94 77.20 29.74 78.35 29.55 79.20C29.16 81.06 29.14 81.13 28.95 82.63C28.86 83.28 28.66 84.42 28.49 85.17C28.32 85.92 28.10 87.17 28.00 87.95C27.90 88.73 27.68 89.97 27.51 90.71C27.35 91.45 27.12 92.73 27.01 93.55C26.89 94.38 26.66 95.69 26.49 96.45C26.32 97.22 26.10 98.48 26.00 99.26C25.90 100.03 25.68 101.27 25.51 102.01C25.35 102.75 25.12 104.01 25.01 104.81C24.83 106.10 24.61 107.06 23.91 109.50C23.40 111.27 22.06 113.67 20.86 114.96C19.28 116.67 17.85 117.59 15.70 118.31C13.83 118.93 12.94 119.04 10.12 118.97C7.71 118.91 7.48 118.87 5.77 118.16C4.25 117.54 3.18 116.62 2.33 115.20C2.00 114.67 1.42 112.62 1.29 111.58C1.13 110.28 1.25 108.32 1.60 106.37C1.76 105.48 1.96 104.21 2.05 103.55C2.14 102.89 2.34 101.77 2.50 101.05C2.78 99.76 2.94 98.85 3.05 97.80C3.09 97.50 3.27 96.52 3.46 95.63C3.65 94.74 3.90 93.34 4.01 92.53C4.12 91.72 4.37 90.35 4.55 89.50C4.74 88.65 4.94 87.50 5.00 86.95C5.07 86.40 5.29 85.12 5.50 84.10C5.71 83.08 5.94 81.80 6.00 81.25C6.16 79.95 6.86 76.68 7.10 76.13C7.27 75.73 7.98 75.10 8.25 75.10C8.31 75.10 8.81 74.88 9.36 74.62C9.90 74.35 10.53 74.07 10.75 74.00C10.97 73.93 11.49 73.70 11.90 73.50C12.31 73.30 12.83 73.07 13.05 73.00C13.27 72.93 13.74 72.73 14.10 72.55C14.46 72.37 15.00 72.15 15.30 72.05C15.60 71.95 16.14 71.73 16.50 71.55C16.86 71.37 17.40 71.15 17.70 71.05C18.00 70.96 18.63 70.71 19.10 70.50C19.57 70.29 20.22 70.05 20.55 69.95C20.87 69.86 21.35 69.68 21.60 69.55C21.85 69.42 22.45 69.20 22.94 69.05C23.43 68.90 24.11 68.65 24.46 68.50C24.81 68.34 25.46 68.11 25.92 67.99C26.38 67.87 27.04 67.64 27.40 67.49C27.76 67.34 28.42 67.12 28.87 67.01C29.32 66.89 30.06 66.66 30.51 66.50C30.96 66.33 31.73 66.10 32.22 66.00C32.71 65.89 33.49 65.66 33.96 65.50C34.44 65.34 35.30 65.11 35.89 65.00C36.47 64.89 37.42 64.67 38.00 64.50C38.58 64.33 39.67 64.11 40.44 63.99C41.20 63.88 42.15 63.72 42.54 63.64C45.35 63.05 49.59 62.79 53.59 62.98C56.02 63.10 57.05 63.23 58.95 63.64C59.55 63.78 60.41 63.94 60.85 64.00C61.29 64.07 62.19 64.29 62.85 64.50C63.51 64.71 64.32 64.93 64.65 65.00C64.98 65.07 65.70 65.29 66.25 65.50C66.80 65.71 67.59 65.99 68.00 66.13C70.05 66.80 71.34 67.43 71.61 67.87C71.96 68.43 71.95 68.90 71.57 70.65C71.22 72.23 71.07 73.13 70.95 74.20C70.91 74.50 70.73 75.48 70.54 76.37C70.35 77.26 70.10 78.66 69.99 79.47C69.88 80.28 69.66 81.53 69.50 82.25C69.24 83.47 69.17 83.86 68.90 85.80C68.84 86.21 68.66 87.14 68.50 87.85C68.34 88.56 68.12 89.85 68.00 90.70C67.88 91.55 67.66 92.84 67.50 93.56C67.09 95.40 66.73 98.12 66.86 98.48C67.08 99.11 67.60 98.81 68.47 97.57C68.78 97.12 69.53 96.05 70.14 95.20C70.74 94.35 71.60 93.13 72.05 92.50C72.49 91.87 73.40 90.59 74.06 89.65C74.72 88.72 75.93 87.02 76.73 85.88C79.03 82.63 81.07 79.74 81.85 78.65C82.24 78.10 82.71 77.42 82.89 77.15C83.37 76.43 84.09 75.72 84.40 75.65C84.55 75.62 84.79 75.64 84.95 75.70C85.22 75.80 87.29 77.23 90.55 79.55C91.43 80.18 93.70 81.73 95.60 82.99C97.50 84.25 99.27 85.48 99.54 85.74C100.00 86.18 100.02 86.22 99.98 86.63C99.94 86.97 99.76 87.31 99.20 88.11C97.17 90.99 96.59 91.83 96.50 92.00C96.33 92.32 96.39 92.59 96.67 92.77C96.92 92.94 97.52 92.95 105.35 93.00L113.75 93.05L114.45 93.38C114.83 93.57 115.60 93.88 116.15 94.07C116.69 94.26 117.30 94.50 117.50 94.60C117.69 94.70 118.20 94.88 118.63 95.00C119.06 95.12 119.71 95.34 120.08 95.50C120.45 95.66 121.21 95.90 121.77 96.04C122.32 96.18 123.00 96.39 123.26 96.51C123.53 96.62 124.25 96.83 124.85 96.95C125.45 97.08 126.40 97.33 126.95 97.50C127.50 97.67 128.40 97.88 128.95 97.96C129.50 98.05 130.58 98.27 131.35 98.46C132.11 98.65 133.15 98.85 133.65 98.91C135.23 99.09 136.02 99.19 137.40 99.39C140.89 99.90 141.74 99.95 147.60 99.95C153.48 99.95 154.39 99.90 157.60 99.39C158.29 99.28 159.61 99.10 160.53 99.00C161.45 98.89 162.78 98.67 163.48 98.50C164.18 98.34 165.36 98.12 166.10 98.01C166.84 97.90 167.92 97.67 168.50 97.51C169.08 97.35 170.07 97.12 170.70 97.00C171.33 96.89 172.29 96.66 172.82 96.49C173.35 96.33 174.21 96.11 174.72 96.01C175.23 95.90 176.08 95.68 176.60 95.51C177.12 95.35 178.02 95.10 178.60 94.96C179.18 94.83 179.88 94.62 180.15 94.50C180.43 94.38 181.12 94.17 181.68 94.04C182.25 93.91 183.06 93.66 183.48 93.50C183.91 93.34 184.56 93.13 184.95 93.04C185.33 92.95 186.09 92.70 186.62 92.48C187.91 91.97 188.36 91.91 188.74 92.21C188.99 92.41 189.02 92.48 188.97 92.85C188.92 93.31 188.26 94.82 187.23 96.85C184.76 101.67 182.26 105.15 178.65 108.76C175.35 112.07 171.98 114.52 168.20 116.38C165.68 117.61 162.80 118.66 160.83 119.05C159.75 119.27 158.80 119.67 158.80 119.90C158.80 119.96 156.90 120.00 153.75 120.00C150.50 120.00 148.70 119.96 148.70 119.90Z"/>
</svg>
